<svg width="125" height="125" viewBox="0 0 125 125" fill="none" xmlns="http://www.w3.org/2000/svg">
<rect width="125" height="125" rx="25" fill="#5965FF"/>
<path fill-rule="evenodd" clip-rule="evenodd" d="M26.6702 34.2041C27.573 34.4353 28.5449 34.4257 29.363 33.9794L61.6449 16.3665C62.5391 15.8786 63.6198 15.8778 64.5147 16.3643L105.201 38.4841C105.264 38.5184 105.287 38.5974 105.253 38.6606V38.6606C105.243 38.6797 105.237 38.701 105.237 38.7227V69.8102C105.237 70.8027 105.753 71.7066 106.464 72.3999C108.138 74.0342 109.177 76.3157 109.177 78.84C109.177 83.8103 105.148 87.8395 100.177 87.8395C95.207 87.8395 91.1778 83.8103 91.1778 78.84C91.1778 76.2472 92.2742 73.9104 94.0288 72.2682C94.7743 71.5704 95.3197 70.6453 95.3197 69.6242V46.438C95.3197 45.3365 94.716 44.3235 93.7471 43.7994L64.4647 27.9587C63.5717 27.4756 62.4949 27.4769 61.6032 27.9623L34.9158 42.4876C33.9895 42.9918 33.434 43.9559 33.1935 44.9827C32.2621 48.9603 28.6924 51.9223 24.4308 51.9223C19.4605 51.9223 15.4312 47.8931 15.4312 42.9228C15.4312 37.9525 19.4605 33.9232 24.4308 33.9232C25.2039 33.9232 25.9543 34.0207 26.6702 34.2041ZM103.177 78.8399C103.177 77.1832 101.834 75.8401 100.177 75.8401C98.5206 75.8401 97.1775 77.1832 97.1775 78.8399C97.1775 80.4967 98.5206 81.8398 100.177 81.8398C101.834 81.8398 103.177 80.4967 103.177 78.8399ZM24.4309 45.9227C26.0877 45.9227 27.4307 44.5796 27.4307 42.9228C27.4307 41.2661 26.0877 39.923 24.4309 39.923C22.7741 39.923 21.431 41.2661 21.431 42.9228C21.431 44.5796 22.7741 45.9227 24.4309 45.9227ZM88.2943 93.6729C90.72 92.3241 91.6033 89.2453 90.2673 86.7965C88.9312 84.3473 85.8814 83.456 83.4557 84.8048L64.7562 95.2033C63.8542 95.7049 62.7576 95.7076 61.8531 95.2104L57.4571 92.7941C53.3135 90.5165 48.1255 92.0615 45.8694 96.2446L45.7716 96.4261C45.4333 97.0535 45.6626 97.8392 46.2841 98.1807L63.3098 107.539C63.386 107.581 63.4818 107.553 63.5231 107.476V107.476C63.5373 107.45 63.5587 107.428 63.5848 107.414L88.2943 93.6729ZM73.8375 46.4673C72.8118 46.8424 71.6567 46.8994 70.7079 46.3586L62.8638 41.8875C62.8638 41.8875 62.8638 41.8875 62.8638 41.8875V41.8875C62.8638 41.8875 62.8637 41.8875 62.8637 41.8875L62.8636 41.8876C62.8636 41.8876 62.8636 41.8877 62.8635 41.8877L20.7927 66.1617C20.7814 66.1682 20.7686 66.1717 20.7556 66.1717V66.1717C20.7145 66.1717 20.6813 66.2049 20.6813 66.246V84.3276C20.6813 84.4481 20.779 84.5458 20.8995 84.5458V84.5458C20.936 84.5458 20.972 84.555 21.0041 84.5725L28.0998 88.4494C28.528 88.6833 28.5459 89.2917 28.1322 89.5504V89.5504C27.948 89.6657 27.7185 89.6777 27.5186 89.5927C26.4376 89.133 25.2483 88.8787 23.9996 88.8787C19.0292 88.8787 15 92.9079 15 97.8782C15 102.849 19.0292 106.878 23.9996 106.878C28.2459 106.878 31.8054 103.937 32.7522 99.9806C32.9772 99.0408 33.4665 98.1558 34.2858 97.6434L57.3789 83.1997C58.2379 82.6625 59.302 82.6304 60.2827 82.8848C62.4889 83.4572 64.9123 83.197 67.042 81.9674C71.3465 79.4822 72.8213 73.9782 70.3361 69.6738C67.8509 65.3693 62.3469 63.8945 58.0425 66.3797C55.8021 67.6732 54.3283 69.7845 53.7804 72.1188C53.5585 73.0641 53.0681 73.9542 52.2449 74.4691L40.3906 81.8834C39.4712 82.4584 38.3131 82.4925 37.3614 81.9726L32.3673 79.2439C31.4046 78.7179 30.8058 77.7083 30.8058 76.6113V73.8035C30.8058 72.7317 31.3776 71.7413 32.3058 71.2054L61.4308 54.3901C62.3585 53.8544 63.5015 53.8542 64.4296 54.3894L66.8499 55.7852C67.6195 56.2291 68.1251 57.0017 68.4132 57.8421C69.6258 61.3791 72.9802 63.9216 76.9284 63.9216C81.8988 63.9216 85.928 59.8924 85.928 54.922C85.928 49.9517 81.8988 45.9225 76.9284 45.9225C75.8425 45.9225 74.8014 46.1148 73.8375 46.4673ZM79.9281 54.9221C79.9281 53.2653 78.585 51.9223 76.9282 51.9223C75.2715 51.9223 73.9284 53.2653 73.9284 54.9221C73.9284 56.5789 75.2715 57.922 76.9282 57.922C78.585 57.922 79.9281 56.5789 79.9281 54.9221ZM65.1404 72.6735C64.312 71.2387 62.4773 70.7471 61.0425 71.5755C59.6077 72.4039 59.1161 74.2386 59.9445 75.6734C60.7729 77.1082 62.6075 77.5998 64.0423 76.7714C65.4771 75.943 65.9688 74.1083 65.1404 72.6735ZM26.9995 97.8782C26.9995 96.2214 25.6564 94.8783 23.9996 94.8783C22.3428 94.8783 20.9998 96.2214 20.9998 97.8782C20.9998 99.535 22.3428 100.878 23.9996 100.878C25.6564 100.878 26.9995 99.535 26.9995 97.8782Z" fill="white"/>
</svg>
