<svg width="99" height="96" viewBox="0 0 99 96" fill="none" xmlns="http://www.w3.org/2000/svg">
<mask id="path-1-outside-1_104_79" maskUnits="userSpaceOnUse" x="0" y="0.44165" width="99" height="96" fill="black">
<rect fill="white" y="0.44165" width="99" height="96"/>
<path fill-rule="evenodd" clip-rule="evenodd" d="M13.6702 20.6457C14.573 20.8769 15.5449 20.8674 16.363 20.421L48.6449 2.80812C49.5391 2.32025 50.6198 2.31945 51.5147 2.80599L92.2007 24.9257C92.2638 24.9601 92.2873 25.0391 92.2531 25.1023V25.1023C92.2428 25.1213 92.2374 25.1427 92.2374 25.1643V56.2518C92.2374 57.2443 92.7535 58.1482 93.4637 58.8416C95.1376 60.4758 96.1769 62.7574 96.1769 65.2816C96.1769 70.2519 92.1477 74.2812 87.1773 74.2812C82.207 74.2812 78.1778 70.2519 78.1778 65.2816C78.1778 62.6888 79.2742 60.3521 81.0288 58.7098C81.7743 58.0121 82.3197 57.087 82.3197 56.0659V32.8797C82.3197 31.7781 81.716 30.7652 80.7471 30.241L51.4647 14.4003C50.5717 13.9172 49.4949 13.9186 48.6032 14.404L21.9158 28.9293C20.9895 29.4334 20.434 30.3975 20.1935 31.4243C19.2621 35.4019 15.6924 38.364 11.4308 38.364C6.46046 38.364 2.43122 34.3348 2.43122 29.3644C2.43122 24.3941 6.46046 20.3649 11.4308 20.3649C12.2039 20.3649 12.9543 20.4624 13.6702 20.6457ZM90.1772 65.2816C90.1772 63.6248 88.8341 62.2817 87.1774 62.2817C85.5206 62.2817 84.1775 63.6248 84.1775 65.2816C84.1775 66.9384 85.5206 68.2814 87.1774 68.2814C88.8341 68.2814 90.1772 66.9384 90.1772 65.2816ZM11.4309 32.3643C13.0877 32.3643 14.4307 31.0213 14.4307 29.3645C14.4307 27.7077 13.0877 26.3646 11.4309 26.3646C9.77413 26.3646 8.43105 27.7077 8.43105 29.3645C8.43105 31.0213 9.77413 32.3643 11.4309 32.3643ZM75.2943 80.1146C77.72 78.7658 78.6033 75.687 77.2673 73.2382C75.9312 70.7889 72.8814 69.8977 70.4557 71.2465L51.7562 81.645C50.8542 82.1466 49.7576 82.1493 48.8531 81.6521L44.4571 79.2357C40.3135 76.9581 35.1255 78.5031 32.8694 82.6862L32.7716 82.8678C32.4333 83.4952 32.6626 84.2808 33.2841 84.6223L50.3098 93.9806C50.386 94.0225 50.4818 93.9943 50.5231 93.9177V93.9177C50.5373 93.8914 50.5587 93.8697 50.5848 93.8552L75.2943 80.1146ZM60.8375 32.9089C59.8118 33.284 58.6567 33.341 57.7079 32.8002L49.8638 28.3292C49.8638 28.3292 49.8638 28.3292 49.8638 28.3292V28.3292C49.8638 28.3291 49.8637 28.3291 49.8637 28.3292L49.8636 28.3293C49.8636 28.3293 49.8636 28.3293 49.8635 28.3293L7.79271 52.6034C7.78141 52.6099 7.76861 52.6133 7.75557 52.6133V52.6133C7.71453 52.6133 7.68127 52.6466 7.68127 52.6876V70.7692C7.68127 70.8897 7.77896 70.9874 7.89946 70.9874V70.9874C7.93602 70.9874 7.972 70.9966 8.00408 71.0142L15.0998 74.8911C15.528 75.125 15.5459 75.7334 15.1322 75.9921V75.9921C14.948 76.1073 14.7185 76.1193 14.5186 76.0343C13.4376 75.5746 12.2483 75.3203 10.9996 75.3203C6.02924 75.3203 2 79.3495 2 84.3199C2 89.2902 6.02924 93.3194 10.9996 93.3194C15.2459 93.3194 18.8054 90.3785 19.7522 86.4223C19.9772 85.4825 20.4665 84.5975 21.2858 84.085L44.3789 69.6414C45.2379 69.1041 46.302 69.0721 47.2827 69.3265C49.4889 69.8988 51.9123 69.6387 54.042 68.409C58.3465 65.9239 59.8213 60.4198 57.3361 56.1154C54.8509 51.811 49.3469 50.3362 45.0425 52.8213C42.8021 54.1148 41.3283 56.2261 40.7804 58.5604C40.5585 59.5057 40.0681 60.3959 39.2449 60.9108L27.3906 68.325C26.4712 68.9001 25.3131 68.9342 24.3614 68.4142L19.3673 65.6856C18.4046 65.1596 17.8058 64.15 17.8058 63.0529V60.2451C17.8058 59.1733 18.3776 58.1829 19.3058 57.647L48.4308 40.8317C49.3585 40.2961 50.5015 40.2958 51.4296 40.831L53.8499 42.2269C54.6195 42.6707 55.1251 43.4434 55.4132 44.2838C56.6258 47.8208 59.9802 50.3633 63.9284 50.3633C68.8988 50.3633 72.928 46.334 72.928 41.3637C72.928 36.3934 68.8988 32.3641 63.9284 32.3641C62.8425 32.3641 61.8014 32.5565 60.8375 32.9089ZM66.9281 41.3638C66.9281 39.707 65.585 38.3639 63.9282 38.3639C62.2715 38.3639 60.9284 39.707 60.9284 41.3638C60.9284 43.0205 62.2715 44.3636 63.9282 44.3636C65.585 44.3636 66.9281 43.0205 66.9281 41.3638ZM52.1404 59.1152C51.312 57.6804 49.4773 57.1888 48.0425 58.0172C46.6077 58.8455 46.1161 60.6802 46.9445 62.115C47.7729 63.5498 49.6075 64.0414 51.0423 63.2131C52.4771 62.3847 52.9688 60.55 52.1404 59.1152ZM13.9995 84.3198C13.9995 82.6631 12.6564 81.32 10.9996 81.32C9.34283 81.32 7.99976 82.6631 7.99976 84.3198C7.99976 85.9766 9.34283 87.3197 10.9996 87.3197C12.6564 87.3197 13.9995 85.9766 13.9995 84.3198Z"/>
</mask>
<path fill-rule="evenodd" clip-rule="evenodd" d="M13.6702 20.6457C14.573 20.8769 15.5449 20.8674 16.363 20.421L48.6449 2.80812C49.5391 2.32025 50.6198 2.31945 51.5147 2.80599L92.2007 24.9257C92.2638 24.9601 92.2873 25.0391 92.2531 25.1023V25.1023C92.2428 25.1213 92.2374 25.1427 92.2374 25.1643V56.2518C92.2374 57.2443 92.7535 58.1482 93.4637 58.8416C95.1376 60.4758 96.1769 62.7574 96.1769 65.2816C96.1769 70.2519 92.1477 74.2812 87.1773 74.2812C82.207 74.2812 78.1778 70.2519 78.1778 65.2816C78.1778 62.6888 79.2742 60.3521 81.0288 58.7098C81.7743 58.0121 82.3197 57.087 82.3197 56.0659V32.8797C82.3197 31.7781 81.716 30.7652 80.7471 30.241L51.4647 14.4003C50.5717 13.9172 49.4949 13.9186 48.6032 14.404L21.9158 28.9293C20.9895 29.4334 20.434 30.3975 20.1935 31.4243C19.2621 35.4019 15.6924 38.364 11.4308 38.364C6.46046 38.364 2.43122 34.3348 2.43122 29.3644C2.43122 24.3941 6.46046 20.3649 11.4308 20.3649C12.2039 20.3649 12.9543 20.4624 13.6702 20.6457ZM90.1772 65.2816C90.1772 63.6248 88.8341 62.2817 87.1774 62.2817C85.5206 62.2817 84.1775 63.6248 84.1775 65.2816C84.1775 66.9384 85.5206 68.2814 87.1774 68.2814C88.8341 68.2814 90.1772 66.9384 90.1772 65.2816ZM11.4309 32.3643C13.0877 32.3643 14.4307 31.0213 14.4307 29.3645C14.4307 27.7077 13.0877 26.3646 11.4309 26.3646C9.77413 26.3646 8.43105 27.7077 8.43105 29.3645C8.43105 31.0213 9.77413 32.3643 11.4309 32.3643ZM75.2943 80.1146C77.72 78.7658 78.6033 75.687 77.2673 73.2382C75.9312 70.7889 72.8814 69.8977 70.4557 71.2465L51.7562 81.645C50.8542 82.1466 49.7576 82.1493 48.8531 81.6521L44.4571 79.2357C40.3135 76.9581 35.1255 78.5031 32.8694 82.6862L32.7716 82.8678C32.4333 83.4952 32.6626 84.2808 33.2841 84.6223L50.3098 93.9806C50.386 94.0225 50.4818 93.9943 50.5231 93.9177V93.9177C50.5373 93.8914 50.5587 93.8697 50.5848 93.8552L75.2943 80.1146ZM60.8375 32.9089C59.8118 33.284 58.6567 33.341 57.7079 32.8002L49.8638 28.3292C49.8638 28.3292 49.8638 28.3292 49.8638 28.3292V28.3292C49.8638 28.3291 49.8637 28.3291 49.8637 28.3292L49.8636 28.3293C49.8636 28.3293 49.8636 28.3293 49.8635 28.3293L7.79271 52.6034C7.78141 52.6099 7.76861 52.6133 7.75557 52.6133V52.6133C7.71453 52.6133 7.68127 52.6466 7.68127 52.6876V70.7692C7.68127 70.8897 7.77896 70.9874 7.89946 70.9874V70.9874C7.93602 70.9874 7.972 70.9966 8.00408 71.0142L15.0998 74.8911C15.528 75.125 15.5459 75.7334 15.1322 75.9921V75.9921C14.948 76.1073 14.7185 76.1193 14.5186 76.0343C13.4376 75.5746 12.2483 75.3203 10.9996 75.3203C6.02924 75.3203 2 79.3495 2 84.3199C2 89.2902 6.02924 93.3194 10.9996 93.3194C15.2459 93.3194 18.8054 90.3785 19.7522 86.4223C19.9772 85.4825 20.4665 84.5975 21.2858 84.085L44.3789 69.6414C45.2379 69.1041 46.302 69.0721 47.2827 69.3265C49.4889 69.8988 51.9123 69.6387 54.042 68.409C58.3465 65.9239 59.8213 60.4198 57.3361 56.1154C54.8509 51.811 49.3469 50.3362 45.0425 52.8213C42.8021 54.1148 41.3283 56.2261 40.7804 58.5604C40.5585 59.5057 40.0681 60.3959 39.2449 60.9108L27.3906 68.325C26.4712 68.9001 25.3131 68.9342 24.3614 68.4142L19.3673 65.6856C18.4046 65.1596 17.8058 64.15 17.8058 63.0529V60.2451C17.8058 59.1733 18.3776 58.1829 19.3058 57.647L48.4308 40.8317C49.3585 40.2961 50.5015 40.2958 51.4296 40.831L53.8499 42.2269C54.6195 42.6707 55.1251 43.4434 55.4132 44.2838C56.6258 47.8208 59.9802 50.3633 63.9284 50.3633C68.8988 50.3633 72.928 46.334 72.928 41.3637C72.928 36.3934 68.8988 32.3641 63.9284 32.3641C62.8425 32.3641 61.8014 32.5565 60.8375 32.9089ZM66.9281 41.3638C66.9281 39.707 65.585 38.3639 63.9282 38.3639C62.2715 38.3639 60.9284 39.707 60.9284 41.3638C60.9284 43.0205 62.2715 44.3636 63.9282 44.3636C65.585 44.3636 66.9281 43.0205 66.9281 41.3638ZM52.1404 59.1152C51.312 57.6804 49.4773 57.1888 48.0425 58.0172C46.6077 58.8455 46.1161 60.6802 46.9445 62.115C47.7729 63.5498 49.6075 64.0414 51.0423 63.2131C52.4771 62.3847 52.9688 60.55 52.1404 59.1152ZM13.9995 84.3198C13.9995 82.6631 12.6564 81.32 10.9996 81.32C9.34283 81.32 7.99976 82.6631 7.99976 84.3198C7.99976 85.9766 9.34283 87.3197 10.9996 87.3197C12.6564 87.3197 13.9995 85.9766 13.9995 84.3198Z" fill="#5965FF"/>
<path d="M77.2673 73.2382L75.5115 74.196L75.5116 74.1961L77.2673 73.2382ZM75.2943 80.1146L74.3224 78.3666L74.3223 78.3667L75.2943 80.1146ZM70.4557 71.2465L69.4838 69.4985L69.4837 69.4985L70.4557 71.2465ZM44.4571 79.2357L45.4205 77.4831L45.4205 77.483L44.4571 79.2357ZM32.8694 82.6862L31.1091 81.7368L31.1087 81.7375L32.8694 82.6862ZM32.7716 82.8678L34.532 83.8169L34.5322 83.8165L32.7716 82.8678ZM33.2841 84.6223L34.2475 82.8696L34.2473 82.8695L33.2841 84.6223ZM54.042 68.409L55.042 70.1411L55.042 70.1411L54.042 68.409ZM57.3361 56.1154L59.0682 55.1154L59.0682 55.1154L57.3361 56.1154ZM45.0425 52.8213L44.0425 51.0893L44.0425 51.0893L45.0425 52.8213ZM48.0425 58.0172L49.0425 59.7492L49.0425 59.7492L48.0425 58.0172ZM52.1404 59.1152L53.8724 58.1152L53.8724 58.1152L52.1404 59.1152ZM46.9445 62.115L48.6765 61.115L48.6765 61.115L46.9445 62.115ZM19.3058 57.647L20.3058 59.3791L19.3058 57.647ZM27.3906 68.325L28.4512 70.0207L27.3906 68.325ZM24.3614 68.4142L25.3203 66.6591L24.3614 68.4142ZM14.5186 76.0343L13.7359 77.8748L14.5186 76.0343ZM15.0998 74.8911L14.1409 76.6462L15.0998 74.8911ZM8.00408 71.0142L8.96303 69.259L8.00408 71.0142ZM7.79271 52.6034L8.79222 54.3357L7.79271 52.6034ZM49.8636 28.3293L48.134 27.325L49.8636 28.3293ZM49.8635 28.3293L48.864 26.597L49.8635 28.3293ZM49.8637 28.3292L48.1341 27.3249L49.8637 28.3292ZM49.8638 28.3292L48.8735 30.0667L48.8735 30.0667L49.8638 28.3292ZM48.6032 14.404L47.647 12.6473L48.6032 14.404ZM48.4308 40.8317L47.4308 39.0997L48.4308 40.8317ZM51.4296 40.831L50.4304 42.5635L51.4296 40.831ZM81.0288 58.7098L79.6621 57.2497L81.0288 58.7098ZM50.3098 93.9806L49.3465 95.7333L50.3098 93.9806ZM50.5848 93.8552L49.6128 92.1073L50.5848 93.8552ZM53.8499 42.2269L52.8507 43.9594L53.8499 42.2269ZM55.4132 44.2838L53.5213 44.9324L55.4132 44.2838ZM51.7562 81.645L52.7282 83.3929L51.7562 81.645ZM48.8531 81.6521L47.8897 83.4048L48.8531 81.6521ZM40.7804 58.5604L38.8333 58.1034L40.7804 58.5604ZM39.2449 60.9108L38.1843 59.2151L39.2449 60.9108ZM92.2007 24.9257L91.2454 26.6828L92.2007 24.9257ZM16.363 20.421L17.3209 22.1767L16.363 20.421ZM57.7079 32.8002L56.7175 34.5378L57.7079 32.8002ZM60.8375 32.9089L61.5244 34.7873L60.8375 32.9089ZM19.7522 86.4223L21.6973 86.8878L19.7522 86.4223ZM21.2858 84.085L20.2252 82.3894L21.2858 84.085ZM44.3789 69.6414L45.4395 71.337L44.3789 69.6414ZM47.2827 69.3265L46.7805 71.2624L46.7805 71.2624L47.2827 69.3265ZM48.6449 2.80812L47.687 1.05243L48.6449 2.80812ZM51.5147 2.80599L50.5594 4.5631L51.5147 2.80599ZM47.687 1.05243L15.4051 18.6653L17.3209 22.1767L49.6028 4.56381L47.687 1.05243ZM93.156 23.1686L52.47 1.04888L50.5594 4.5631L91.2454 26.6828L93.156 23.1686ZM94.2374 56.2518V25.1643H90.2374V56.2518H94.2374ZM98.1769 65.2816C98.1769 62.1968 96.9044 59.4056 94.8608 57.4105L92.0665 60.2727C93.3709 61.5461 94.1769 63.3179 94.1769 65.2816H98.1769ZM87.1773 76.2812C93.2522 76.2812 98.1769 71.3565 98.1769 65.2816H94.1769C94.1769 69.1474 91.0431 72.2812 87.1773 72.2812V76.2812ZM76.1778 65.2816C76.1778 71.3565 81.1024 76.2812 87.1773 76.2812V72.2812C83.3116 72.2812 80.1778 69.1474 80.1778 65.2816H76.1778ZM79.6621 57.2497C77.5204 59.2542 76.1778 62.1127 76.1778 65.2816H80.1778C80.1778 63.2649 81.0281 61.4499 82.3955 60.17L79.6621 57.2497ZM80.3197 32.8797V56.0659H84.3197V32.8797H80.3197ZM50.5131 16.1594L79.7955 32.0001L81.6987 28.4819L52.4163 12.6412L50.5131 16.1594ZM22.8719 30.6859L49.5593 16.1606L47.647 12.6473L20.9597 27.1726L22.8719 30.6859ZM11.4308 40.364C16.642 40.364 21.0024 36.742 22.1408 31.8803L18.2462 30.9683C17.5218 34.0619 14.7427 36.364 11.4308 36.364V40.364ZM0.431222 29.3644C0.431222 35.4393 5.3559 40.364 11.4308 40.364V36.364C7.56503 36.364 4.43122 33.2302 4.43122 29.3644H0.431222ZM11.4308 18.3649C5.35589 18.3649 0.431222 23.2895 0.431222 29.3644H4.43122C4.43122 25.4987 7.56503 22.3649 11.4308 22.3649V18.3649ZM14.1664 18.7082C13.2897 18.4837 12.3727 18.3649 11.4308 18.3649V22.3649C12.0352 22.3649 12.6189 22.441 13.174 22.5832L14.1664 18.7082ZM87.1774 64.2817C87.7296 64.2817 88.1772 64.7294 88.1772 65.2816H92.1772C92.1772 62.5202 89.9387 60.2817 87.1774 60.2817V64.2817ZM86.1775 65.2816C86.1775 64.7294 86.6252 64.2817 87.1774 64.2817V60.2817C84.416 60.2817 82.1775 62.5202 82.1775 65.2816H86.1775ZM87.1774 66.2814C86.6252 66.2814 86.1775 65.8338 86.1775 65.2816H82.1775C82.1775 68.0429 84.416 70.2814 87.1774 70.2814V66.2814ZM88.1772 65.2816C88.1772 65.8338 87.7296 66.2814 87.1774 66.2814V70.2814C89.9387 70.2814 92.1772 68.0429 92.1772 65.2816H88.1772ZM12.4307 29.3645C12.4307 29.9167 11.9831 30.3643 11.4309 30.3643V34.3643C14.1922 34.3643 16.4307 32.1258 16.4307 29.3645H12.4307ZM11.4309 28.3646C11.9831 28.3646 12.4307 28.8123 12.4307 29.3645H16.4307C16.4307 26.6032 14.1922 24.3646 11.4309 24.3646V28.3646ZM10.431 29.3645C10.431 28.8123 10.8787 28.3646 11.4309 28.3646V24.3646C8.66955 24.3646 6.43105 26.6032 6.43105 29.3645H10.431ZM11.4309 30.3643C10.8787 30.3643 10.431 29.9167 10.431 29.3645H6.43105C6.43105 32.1258 8.66956 34.3643 11.4309 34.3643V30.3643ZM75.5116 74.1961C76.3262 75.6891 75.7799 77.5562 74.3224 78.3666L76.2663 81.8625C79.6602 79.9754 80.8805 75.6849 79.0229 72.2803L75.5116 74.1961ZM71.4277 72.9944C72.8744 72.19 74.703 72.7137 75.5115 74.196L79.023 72.2804C77.1594 68.8641 72.8885 67.6053 69.4838 69.4985L71.4277 72.9944ZM52.7282 83.3929L71.4277 72.9944L69.4837 69.4985L50.7842 79.897L52.7282 83.3929ZM43.4937 80.9884L47.8897 83.4048L49.8165 79.8994L45.4205 77.4831L43.4937 80.9884ZM34.6297 83.6356C36.3632 80.4214 40.3323 79.2506 43.4938 80.9884L45.4205 77.483C40.2948 74.6656 33.8878 76.5848 31.1091 81.7368L34.6297 83.6356ZM34.5322 83.8165L34.6301 83.6349L31.1087 81.7375L31.0109 81.919L34.5322 83.8165ZM34.2473 82.8695C34.5974 83.0619 34.7101 83.4866 34.532 83.8169L31.0112 81.9186C30.1565 83.5037 30.7279 85.4997 32.3209 86.3751L34.2473 82.8695ZM51.2732 92.2279L34.2475 82.8696L32.3208 86.375L49.3465 95.7333L51.2732 92.2279ZM74.3223 78.3667L49.6128 92.1073L51.5568 95.6031L76.2663 81.8625L74.3223 78.3667ZM48.8735 30.0667L56.7175 34.5378L58.6983 31.0626L50.8542 26.5916L48.8735 30.0667ZM51.5932 29.3335L51.5932 29.3335L48.1341 27.3249L48.134 27.325L51.5932 29.3335ZM8.79222 54.3357L50.8631 30.0617L48.864 26.597L6.79319 50.8711L8.79222 54.3357ZM9.68127 70.7692V52.6876H5.68127V70.7692H9.68127ZM16.0588 73.1359L8.96303 69.259L7.04514 72.7693L14.1409 76.6462L16.0588 73.1359ZM10.9996 77.3203C11.9745 77.3203 12.898 77.5185 13.7359 77.8748L15.3013 74.1938C13.9773 73.6308 12.5221 73.3203 10.9996 73.3203V77.3203ZM4 84.3199C4 80.4541 7.13381 77.3203 10.9996 77.3203V73.3203C4.92467 73.3203 0 78.245 0 84.3199H4ZM10.9996 91.3194C7.13381 91.3194 4 88.1856 4 84.3199H0C0 90.3948 4.92467 95.3194 10.9996 95.3194V91.3194ZM17.8072 85.9568C17.0708 89.0338 14.2996 91.3194 10.9996 91.3194V95.3194C16.1922 95.3194 20.5401 91.7232 21.6973 86.8878L17.8072 85.9568ZM43.3183 67.9457L20.2252 82.3894L22.3463 85.7807L45.4395 71.337L43.3183 67.9457ZM53.042 66.677C51.385 67.6337 49.5037 67.8365 47.785 67.3906L46.7805 71.2624C49.4741 71.9612 52.4396 71.6436 55.042 70.1411L53.042 66.677ZM55.6041 57.1154C57.5369 60.4633 56.3899 64.7441 53.042 66.677L55.042 70.1411C60.3031 67.1036 62.1056 60.3764 59.0682 55.1154L55.6041 57.1154ZM46.0425 54.5534C49.3903 52.6205 53.6712 53.7676 55.6041 57.1154L59.0682 55.1154C56.0307 49.8544 49.3035 48.0518 44.0425 51.0893L46.0425 54.5534ZM42.7275 59.0174C43.1545 57.1982 44.2999 55.5595 46.0425 54.5534L44.0425 51.0893C41.3043 52.6702 39.5021 55.254 38.8333 58.1034L42.7275 59.0174ZM28.4512 70.0207L40.3054 62.6064L38.1843 59.2151L26.3301 66.6294L28.4512 70.0207ZM18.4084 67.4407L23.4025 70.1693L25.3203 66.6591L20.3263 63.9305L18.4084 67.4407ZM15.8058 60.2451V63.0529H19.8058V60.2451H15.8058ZM47.4308 39.0997L18.3058 55.915L20.3058 59.3791L49.4308 42.5638L47.4308 39.0997ZM54.8491 40.4944L52.4287 39.0985L50.4304 42.5635L52.8507 43.9594L54.8491 40.4944ZM63.9284 48.3633C60.8607 48.3633 58.2491 46.3886 57.3051 43.6351L53.5213 44.9324C55.0026 49.253 59.0997 52.3633 63.9284 52.3633V48.3633ZM70.928 41.3637C70.928 45.2294 67.7942 48.3633 63.9284 48.3633V52.3633C70.0033 52.3633 74.928 47.4386 74.928 41.3637H70.928ZM63.9284 34.3641C67.7942 34.3641 70.928 37.4979 70.928 41.3637H74.928C74.928 35.2888 70.0033 30.3641 63.9284 30.3641V34.3641ZM61.5244 34.7873C62.2715 34.5141 63.0802 34.3641 63.9284 34.3641V30.3641C62.6048 30.3641 61.3314 30.5988 60.1507 31.0306L61.5244 34.7873ZM63.9282 40.3639C64.4804 40.3639 64.9281 40.8116 64.9281 41.3638H68.9281C68.9281 38.6024 66.6896 36.3639 63.9282 36.3639V40.3639ZM62.9284 41.3638C62.9284 40.8116 63.376 40.3639 63.9282 40.3639V36.3639C61.1669 36.3639 58.9284 38.6024 58.9284 41.3638H62.9284ZM63.9282 42.3636C63.376 42.3636 62.9284 41.916 62.9284 41.3638H58.9284C58.9284 44.1251 61.1669 46.3636 63.9282 46.3636V42.3636ZM64.9281 41.3638C64.9281 41.916 64.4804 42.3636 63.9282 42.3636V46.3636C66.6896 46.3636 68.9281 44.1251 68.9281 41.3638H64.9281ZM49.0425 59.7492C49.5207 59.4731 50.1322 59.637 50.4083 60.1152L53.8724 58.1152C52.4917 55.7238 49.4339 54.9044 47.0425 56.2851L49.0425 59.7492ZM48.6765 61.115C48.4004 60.6368 48.5643 60.0253 49.0425 59.7492L47.0425 56.2851C44.6511 57.6658 43.8317 60.7236 45.2124 63.115L48.6765 61.115ZM50.0423 61.481C49.5641 61.7571 48.9526 61.5933 48.6765 61.115L45.2124 63.115C46.5931 65.5064 49.651 66.3258 52.0423 64.9451L50.0423 61.481ZM50.4083 60.1152C50.6844 60.5934 50.5206 61.2049 50.0423 61.481L52.0423 64.9451C54.4337 63.5644 55.2531 60.5066 53.8724 58.1152L50.4083 60.1152ZM10.9996 83.32C11.5518 83.32 11.9995 83.7676 11.9995 84.3198H15.9995C15.9995 81.5585 13.7609 79.32 10.9996 79.32V83.32ZM9.99976 84.3198C9.99976 83.7676 10.4474 83.32 10.9996 83.32V79.32C8.23825 79.32 5.99976 81.5585 5.99976 84.3198H9.99976ZM10.9996 85.3197C10.4474 85.3197 9.99976 84.872 9.99976 84.3198H5.99976C5.99976 87.0812 8.23826 89.3197 10.9996 89.3197V85.3197ZM11.9995 84.3198C11.9995 84.872 11.5518 85.3197 10.9996 85.3197V89.3197C13.7609 89.3197 15.9995 87.0812 15.9995 84.3198H11.9995ZM19.8058 60.2451C19.8058 59.8879 19.9964 59.5577 20.3058 59.3791L18.3058 55.915C16.7588 56.8082 15.8058 58.4588 15.8058 60.2451H19.8058ZM20.3263 63.9305C20.0054 63.7551 19.8058 63.4186 19.8058 63.0529H15.8058C15.8058 64.8814 16.8038 66.564 18.4084 67.4407L20.3263 63.9305ZM26.3301 66.6294C26.0236 66.821 25.6376 66.8324 25.3203 66.6591L23.4025 70.1693C24.9885 71.0359 26.9188 70.9791 28.4512 70.0207L26.3301 66.6294ZM14.0717 74.2965C14.4769 74.043 14.9397 74.0401 15.3013 74.1938L13.7359 77.8748C14.4973 78.1986 15.4191 78.1716 16.1928 77.6878L14.0717 74.2965ZM14.1409 76.6462C13.2271 76.1469 13.1889 74.8486 14.0717 74.2965L16.1928 77.6878C17.9029 76.6182 17.8288 74.1031 16.0588 73.1359L14.1409 76.6462ZM7.89946 72.9874C7.6009 72.9874 7.30713 72.9124 7.04514 72.7693L8.96303 69.259C8.63686 69.0808 8.27115 68.9874 7.89946 68.9874V72.9874ZM5.68127 70.7692C5.68127 71.9943 6.67439 72.9874 7.89946 72.9874V68.9874C8.88353 68.9874 9.68127 69.7852 9.68127 70.7692H5.68127ZM7.75557 50.6133C6.60996 50.6133 5.68127 51.542 5.68127 52.6876H9.68127C9.68127 53.7512 8.81911 54.6133 7.75557 54.6133V50.6133ZM6.79319 50.8711C7.08582 50.7022 7.41772 50.6133 7.75557 50.6133V54.6133C8.11949 54.6133 8.47701 54.5176 8.79222 54.3357L6.79319 50.8711ZM48.134 27.325C48.2991 27.0407 48.5437 26.7818 48.864 26.597L50.8631 30.0617C51.1834 29.8768 51.4281 29.6179 51.5932 29.3335L48.134 27.325ZM51.1132 26.7674C50.1585 26.0036 48.748 26.2676 48.1341 27.3249L51.5932 29.3335C50.9794 30.3907 49.569 30.6546 48.6144 29.8909L51.1132 26.7674ZM50.8542 26.5916C50.945 26.6433 51.0316 26.7021 51.1132 26.7674L48.6144 29.8909C48.6961 29.9562 48.7827 30.015 48.8735 30.0667L50.8542 26.5916ZM52.4163 12.6412C50.928 11.8361 49.1334 11.8383 47.647 12.6473L49.5593 16.1606C49.8565 15.9988 50.2154 15.9984 50.5131 16.1594L52.4163 12.6412ZM49.4308 42.5638C49.74 42.3852 50.121 42.3851 50.4304 42.5635L52.4287 39.0985C50.882 38.2065 48.977 38.2069 47.4308 39.0997L49.4308 42.5638ZM82.3955 60.17C83.3945 59.2349 84.3197 57.8174 84.3197 56.0659H80.3197C80.3197 56.3566 80.1541 56.7892 79.6621 57.2497L82.3955 60.17ZM49.3465 95.7333C50.3961 96.3102 51.7148 95.9213 52.2834 94.8671L48.7628 92.9683C49.2488 92.0672 50.376 91.7348 51.2732 92.2279L49.3465 95.7333ZM52.2834 94.8671C52.1164 95.1767 51.8643 95.4321 51.5568 95.6031L49.6128 92.1073C49.2531 92.3073 48.9581 92.6061 48.7628 92.9683L52.2834 94.8671ZM52.8507 43.9594C53.0703 44.0861 53.3327 44.3822 53.5213 44.9324L57.3051 43.6351C56.9174 42.5045 56.1686 41.2554 54.8491 40.4944L52.8507 43.9594ZM84.3197 32.8797C84.3197 31.0437 83.3135 29.3555 81.6987 28.4819L79.7955 32.0001C80.1185 32.1748 80.3197 32.5125 80.3197 32.8797H84.3197ZM90.494 24.1507C90.3256 24.462 90.2374 24.8104 90.2374 25.1643H94.2374C94.2374 25.4749 94.16 25.7807 94.0122 26.0539L90.494 24.1507ZM50.7842 79.897C50.4836 80.0643 50.118 80.0651 49.8165 79.8994L47.8897 83.4048C49.3972 84.2334 51.2248 84.2289 52.7282 83.3929L50.7842 79.897ZM38.8333 58.1034C38.6877 58.7236 38.4191 59.0682 38.1843 59.2151L40.3054 62.6064C41.717 61.7235 42.4293 60.2878 42.7275 59.0174L38.8333 58.1034ZM90.2374 56.2518C90.2374 57.9539 91.1132 59.3419 92.0665 60.2727L94.8608 57.4105C94.3938 56.9546 94.2374 56.5347 94.2374 56.2518H90.2374ZM91.2454 26.6828C90.3396 26.1903 90.0034 25.0575 90.494 24.1507L94.0122 26.0539C94.5712 25.0206 94.1881 23.7298 93.156 23.1686L91.2454 26.6828ZM15.4051 18.6653C15.1717 18.7926 14.7599 18.8602 14.1664 18.7082L13.174 22.5832C14.3862 22.8936 15.918 22.9421 17.3209 22.1767L15.4051 18.6653ZM56.7175 34.5378C58.3462 35.4661 60.1591 35.2866 61.5244 34.7873L60.1507 31.0306C59.4646 31.2815 58.9672 31.2159 58.6983 31.0626L56.7175 34.5378ZM20.9597 27.1726C19.3697 28.038 18.5672 29.5974 18.2462 30.9683L22.1408 31.8803C22.3007 31.1977 22.6093 30.8288 22.8719 30.6859L20.9597 27.1726ZM21.6973 86.8878C21.8454 86.2688 22.1133 85.9264 22.3463 85.7807L20.2252 82.3894C18.8196 83.2685 18.1089 84.6961 17.8072 85.9568L21.6973 86.8878ZM45.4395 71.337C45.6841 71.184 46.1342 71.0947 46.7805 71.2624L47.785 67.3906C46.4699 67.0494 44.7917 67.0242 43.3183 67.9457L45.4395 71.337ZM49.6028 4.56381C49.9009 4.40118 50.2611 4.40092 50.5594 4.5631L52.47 1.04888C50.9784 0.237979 49.1773 0.239321 47.687 1.05243L49.6028 4.56381Z" fill="white" mask="url(#path-1-outside-1_104_79)"/>
</svg>
