<svg width="838" height="222" viewBox="0 0 838 222" fill="none" xmlns="http://www.w3.org/2000/svg">
<path d="M310.48 78.28V145H299.536V115.816H268.144V145H257.2V78.28H268.144V106.888H299.536V78.28H310.48ZM321.24 118.312C321.24 113 322.328 108.296 324.504 104.2C326.744 100.104 329.752 96.936 333.528 94.696C337.368 92.392 341.592 91.24 346.2 91.24C350.36 91.24 353.976 92.072 357.048 93.736C360.184 95.336 362.68 97.352 364.536 99.784V92.104H375.576V145H364.536V137.128C362.68 139.624 360.152 141.704 356.952 143.368C353.752 145.032 350.104 145.864 346.008 145.864C341.464 145.864 337.304 144.712 333.528 142.408C329.752 140.04 326.744 136.776 324.504 132.616C322.328 128.392 321.24 123.624 321.24 118.312ZM364.536 118.504C364.536 114.856 363.768 111.688 362.232 109C360.76 106.312 358.808 104.264 356.376 102.856C353.944 101.448 351.32 100.744 348.504 100.744C345.688 100.744 343.064 101.448 340.632 102.856C338.2 104.2 336.216 106.216 334.68 108.904C333.208 111.528 332.472 114.664 332.472 118.312C332.472 121.96 333.208 125.16 334.68 127.912C336.216 130.664 338.2 132.776 340.632 134.248C343.128 135.656 345.752 136.36 348.504 136.36C351.32 136.36 353.944 135.656 356.376 134.248C358.808 132.84 360.76 130.792 362.232 128.104C363.768 125.352 364.536 122.152 364.536 118.504ZM437.854 92.104V145H426.91V138.76C425.182 140.936 422.91 142.664 420.094 143.944C417.342 145.16 414.398 145.768 411.262 145.768C407.102 145.768 403.358 144.904 400.03 143.176C396.766 141.448 394.174 138.888 392.254 135.496C390.398 132.104 389.47 128.008 389.47 123.208V92.104H400.318V121.576C400.318 126.312 401.502 129.96 403.87 132.52C406.238 135.016 409.47 136.264 413.566 136.264C417.662 136.264 420.894 135.016 423.262 132.52C425.694 129.96 426.91 126.312 426.91 121.576V92.104H437.854ZM478.982 91.24C483.142 91.24 486.854 92.104 490.118 93.832C493.446 95.56 496.038 98.12 497.894 101.512C499.75 104.904 500.678 109 500.678 113.8V145H489.83V115.432C489.83 110.696 488.646 107.08 486.278 104.584C483.91 102.024 480.678 100.744 476.582 100.744C472.486 100.744 469.222 102.024 466.79 104.584C464.422 107.08 463.238 110.696 463.238 115.432V145H452.294V92.104H463.238V98.152C465.03 95.976 467.302 94.28 470.054 93.064C472.87 91.848 475.846 91.24 478.982 91.24ZM510.99 118.312C510.99 113 512.078 108.296 514.254 104.2C516.494 100.104 519.502 96.936 523.278 94.696C527.118 92.392 531.342 91.24 535.95 91.24C540.11 91.24 543.726 92.072 546.798 93.736C549.934 95.336 552.43 97.352 554.286 99.784V92.104H565.326V145H554.286V137.128C552.43 139.624 549.902 141.704 546.702 143.368C543.502 145.032 539.854 145.864 535.758 145.864C531.214 145.864 527.054 144.712 523.278 142.408C519.502 140.04 516.494 136.776 514.254 132.616C512.078 128.392 510.99 123.624 510.99 118.312ZM554.286 118.504C554.286 114.856 553.518 111.688 551.982 109C550.51 106.312 548.558 104.264 546.126 102.856C543.694 101.448 541.07 100.744 538.254 100.744C535.438 100.744 532.814 101.448 530.382 102.856C527.95 104.2 525.966 106.216 524.43 108.904C522.958 111.528 522.222 114.664 522.222 118.312C522.222 121.96 522.958 125.16 524.43 127.912C525.966 130.664 527.95 132.776 530.382 134.248C532.878 135.656 535.502 136.36 538.254 136.36C541.07 136.36 543.694 135.656 546.126 134.248C548.558 132.84 550.51 130.792 551.982 128.104C553.518 125.352 554.286 122.152 554.286 118.504ZM606.388 91.24C610.548 91.24 614.26 92.104 617.524 93.832C620.852 95.56 623.444 98.12 625.3 101.512C627.156 104.904 628.084 109 628.084 113.8V145H617.236V115.432C617.236 110.696 616.052 107.08 613.684 104.584C611.316 102.024 608.084 100.744 603.988 100.744C599.892 100.744 596.628 102.024 594.196 104.584C591.828 107.08 590.644 110.696 590.644 115.432V145H579.7V92.104H590.644V98.152C592.436 95.976 594.708 94.28 597.46 93.064C600.276 91.848 603.252 91.24 606.388 91.24ZM646.46 145.672C644.476 145.672 642.812 145 641.468 143.656C640.124 142.312 639.452 140.648 639.452 138.664C639.452 136.68 640.124 135.016 641.468 133.672C642.812 132.328 644.476 131.656 646.46 131.656C648.38 131.656 650.012 132.328 651.356 133.672C652.7 135.016 653.372 136.68 653.372 138.664C653.372 140.648 652.7 142.312 651.356 143.656C650.012 145 648.38 145.672 646.46 145.672ZM661.552 118.312C661.552 113 662.64 108.296 664.816 104.2C667.056 100.104 670.064 96.936 673.84 94.696C677.68 92.392 681.936 91.24 686.608 91.24C690.064 91.24 693.456 92.008 696.784 93.544C700.176 95.016 702.864 97 704.848 99.496V73.96H715.888V145H704.848V137.032C703.056 139.592 700.56 141.704 697.36 143.368C694.224 145.032 690.608 145.864 686.512 145.864C681.904 145.864 677.68 144.712 673.84 142.408C670.064 140.04 667.056 136.776 664.816 132.616C662.64 128.392 661.552 123.624 661.552 118.312ZM704.848 118.504C704.848 114.856 704.08 111.688 702.544 109C701.072 106.312 699.12 104.264 696.688 102.856C694.256 101.448 691.632 100.744 688.816 100.744C686 100.744 683.376 101.448 680.944 102.856C678.512 104.2 676.528 106.216 674.992 108.904C673.52 111.528 672.784 114.664 672.784 118.312C672.784 121.96 673.52 125.16 674.992 127.912C676.528 130.664 678.512 132.776 680.944 134.248C683.44 135.656 686.064 136.36 688.816 136.36C691.632 136.36 694.256 135.656 696.688 134.248C699.12 132.84 701.072 130.792 702.544 128.104C704.08 125.352 704.848 122.152 704.848 118.504ZM778.743 117.256C778.743 119.24 778.615 121.032 778.359 122.632H737.943C738.263 126.856 739.831 130.248 742.647 132.808C745.463 135.368 748.919 136.648 753.015 136.648C758.903 136.648 763.063 134.184 765.495 129.256H777.302C775.703 134.12 772.791 138.12 768.567 141.256C764.407 144.328 759.223 145.864 753.015 145.864C747.959 145.864 743.415 144.744 739.383 142.504C735.415 140.2 732.279 137 729.975 132.904C727.735 128.744 726.615 123.944 726.615 118.504C726.615 113.064 727.703 108.296 729.879 104.2C732.119 100.04 735.223 96.84 739.191 94.6C743.223 92.36 747.831 91.24 753.015 91.24C758.007 91.24 762.455 92.328 766.359 94.504C770.263 96.68 773.303 99.752 775.479 103.72C777.655 107.624 778.743 112.136 778.743 117.256ZM767.319 113.8C767.255 109.768 765.815 106.536 762.999 104.104C760.183 101.672 756.695 100.456 752.535 100.456C748.759 100.456 745.527 101.672 742.839 104.104C740.151 106.472 738.551 109.704 738.039 113.8H767.319ZM809.961 135.208L824.937 92.104H836.552L816.393 145H803.337L783.273 92.104H794.984L809.961 135.208Z" fill="#5965FF"/>
<mask id="path-2-outside-1_104_42" maskUnits="userSpaceOnUse" x="0" y="0" width="227" height="222" fill="black">
<rect fill="white" width="227" height="222"/>
<path fill-rule="evenodd" clip-rule="evenodd" d="M32.9275 47.7537C33.8046 48.0688 34.7792 48.041 35.5973 47.5946L115.5 4.00001C115.5 4.00001 115.5 4 115.5 4L115.5 4C115.5 4 115.5 4.00002 115.5 4.00005V4.00005C115.5 4.00007 115.5 4.00009 115.5 4.0001L213.184 57.1076C213.33 57.1871 213.384 57.37 213.305 57.5164V57.5164C213.281 57.5605 213.269 57.6099 213.269 57.66V131.848C213.269 132.841 213.769 133.757 214.545 134.377C219.335 138.201 222.405 144.09 222.405 150.696C222.405 162.223 213.061 171.567 201.534 171.567C190.007 171.567 180.663 162.223 180.663 150.696C180.663 143.907 183.905 137.874 188.926 134.063C189.74 133.445 190.269 132.507 190.269 131.485V73.195C190.269 72.0935 189.665 71.0805 188.696 70.5564L116.825 31.6764C115.932 31.1933 114.855 31.1947 113.963 31.6801L48.2168 67.4642C47.2905 67.9683 46.7134 68.9253 46.5848 69.972C45.318 80.2859 36.5271 88.2722 25.8708 88.2722C14.3442 88.2722 5 78.928 5 67.4014C5 55.8748 14.3442 46.5306 25.8708 46.5306C28.3475 46.5306 30.7234 46.962 32.9275 47.7537ZM208.491 150.696C208.491 146.854 205.376 143.74 201.534 143.74C197.692 143.74 194.577 146.854 194.577 150.696C194.577 154.539 197.692 157.653 201.534 157.653C205.376 157.653 208.491 154.539 208.491 150.696ZM25.8707 74.3584C29.7129 74.3584 32.8277 71.2436 32.8277 67.4014C32.8277 63.5592 29.7129 60.4445 25.8707 60.4445C22.0285 60.4445 18.9138 63.5592 18.9138 67.4014C18.9138 71.2436 22.0285 74.3584 25.8707 74.3584ZM173.976 185.095C179.601 181.967 181.65 174.827 178.551 169.148C175.453 163.468 168.38 161.401 162.755 164.529L117.477 189.708C116.575 190.209 115.478 190.212 114.574 189.715L102.462 183.057C92.8527 177.775 80.8213 181.358 75.5891 191.059L75.3622 191.48C74.5777 192.935 75.1096 194.757 76.5509 195.549L116.035 217.252C116.212 217.349 116.434 217.284 116.53 217.106V217.106C116.563 217.045 116.612 216.994 116.673 216.961L173.976 185.095ZM116.653 92.8521C115.725 92.3169 114.582 92.3172 113.654 92.8528L42.1549 134.133C41.2267 134.669 40.6549 135.659 40.6549 136.731V147.875C40.6549 148.972 41.2537 149.982 42.2165 150.508L57.8903 159.071C58.842 159.591 60.0001 159.557 60.9196 158.982L92.1049 139.477C92.9281 138.962 93.4369 138.079 93.5659 137.116C94.3962 130.922 97.9881 125.166 103.819 121.8C113.802 116.036 126.566 119.457 132.329 129.439C138.093 139.421 134.672 152.186 124.69 157.949C119.084 161.186 112.6 161.526 106.972 159.434C106.023 159.081 104.956 159.134 104.097 159.671L47.0038 195.38C46.1845 195.892 45.6765 196.771 45.5444 197.729C44.141 207.892 35.4199 215.718 24.8708 215.718C13.3442 215.718 4 206.374 4 194.847C4 183.321 13.3442 173.977 24.8708 173.977C27.7668 173.977 30.5251 174.566 33.0321 175.633C33.4957 175.83 34.0278 175.802 34.4549 175.535V175.535C35.4141 174.935 35.3726 173.524 34.3798 172.982L17.924 163.991C17.8496 163.95 17.7662 163.929 17.6814 163.929V163.929C17.4019 163.929 17.1753 163.702 17.1753 163.423V121.489C17.1753 121.394 17.2521 121.317 17.3469 121.317V121.317C17.3771 121.317 17.4066 121.31 17.4327 121.294L113.51 65.8598C114.433 65.3273 115.569 65.3243 116.495 65.852L135.22 76.5251C136.169 77.0659 137.329 77.0325 138.306 76.5446C141.109 75.145 144.271 74.3576 147.617 74.3576C159.144 74.3576 168.488 83.7018 168.488 95.2284C168.488 106.755 159.144 116.099 147.617 116.099C137.813 116.099 129.588 109.339 127.348 100.227C127.136 99.3638 126.615 98.5977 125.846 98.1538L116.653 92.8521ZM154.574 95.2284C154.574 91.3862 151.459 88.2715 147.617 88.2715C143.775 88.2715 140.66 91.3862 140.66 95.2284C140.66 99.0706 143.775 102.185 147.617 102.185C151.459 102.185 154.574 99.0706 154.574 95.2284ZM120.28 136.396C118.359 133.068 114.104 131.928 110.776 133.849C107.449 135.771 106.309 140.025 108.23 143.353C110.151 146.68 114.406 147.82 117.733 145.899C121.061 143.978 122.201 139.723 120.28 136.396ZM31.8277 194.847C31.8277 191.005 28.7129 187.89 24.8707 187.89C21.0285 187.89 17.9138 191.005 17.9138 194.847C17.9138 198.69 21.0285 201.804 24.8707 201.804C28.7129 201.804 31.8277 198.69 31.8277 194.847Z"/>
</mask>
<path fill-rule="evenodd" clip-rule="evenodd" d="M32.9275 47.7537C33.8046 48.0688 34.7792 48.041 35.5973 47.5946L115.5 4.00001C115.5 4.00001 115.5 4 115.5 4L115.5 4C115.5 4 115.5 4.00002 115.5 4.00005V4.00005C115.5 4.00007 115.5 4.00009 115.5 4.0001L213.184 57.1076C213.33 57.1871 213.384 57.37 213.305 57.5164V57.5164C213.281 57.5605 213.269 57.6099 213.269 57.66V131.848C213.269 132.841 213.769 133.757 214.545 134.377C219.335 138.201 222.405 144.09 222.405 150.696C222.405 162.223 213.061 171.567 201.534 171.567C190.007 171.567 180.663 162.223 180.663 150.696C180.663 143.907 183.905 137.874 188.926 134.063C189.74 133.445 190.269 132.507 190.269 131.485V73.195C190.269 72.0935 189.665 71.0805 188.696 70.5564L116.825 31.6764C115.932 31.1933 114.855 31.1947 113.963 31.6801L48.2168 67.4642C47.2905 67.9683 46.7134 68.9253 46.5848 69.972C45.318 80.2859 36.5271 88.2722 25.8708 88.2722C14.3442 88.2722 5 78.928 5 67.4014C5 55.8748 14.3442 46.5306 25.8708 46.5306C28.3475 46.5306 30.7234 46.962 32.9275 47.7537ZM208.491 150.696C208.491 146.854 205.376 143.74 201.534 143.74C197.692 143.74 194.577 146.854 194.577 150.696C194.577 154.539 197.692 157.653 201.534 157.653C205.376 157.653 208.491 154.539 208.491 150.696ZM25.8707 74.3584C29.7129 74.3584 32.8277 71.2436 32.8277 67.4014C32.8277 63.5592 29.7129 60.4445 25.8707 60.4445C22.0285 60.4445 18.9138 63.5592 18.9138 67.4014C18.9138 71.2436 22.0285 74.3584 25.8707 74.3584ZM173.976 185.095C179.601 181.967 181.65 174.827 178.551 169.148C175.453 163.468 168.38 161.401 162.755 164.529L117.477 189.708C116.575 190.209 115.478 190.212 114.574 189.715L102.462 183.057C92.8527 177.775 80.8213 181.358 75.5891 191.059L75.3622 191.48C74.5777 192.935 75.1096 194.757 76.5509 195.549L116.035 217.252C116.212 217.349 116.434 217.284 116.53 217.106V217.106C116.563 217.045 116.612 216.994 116.673 216.961L173.976 185.095ZM116.653 92.8521C115.725 92.3169 114.582 92.3172 113.654 92.8528L42.1549 134.133C41.2267 134.669 40.6549 135.659 40.6549 136.731V147.875C40.6549 148.972 41.2537 149.982 42.2165 150.508L57.8903 159.071C58.842 159.591 60.0001 159.557 60.9196 158.982L92.1049 139.477C92.9281 138.962 93.4369 138.079 93.5659 137.116C94.3962 130.922 97.9881 125.166 103.819 121.8C113.802 116.036 126.566 119.457 132.329 129.439C138.093 139.421 134.672 152.186 124.69 157.949C119.084 161.186 112.6 161.526 106.972 159.434C106.023 159.081 104.956 159.134 104.097 159.671L47.0038 195.38C46.1845 195.892 45.6765 196.771 45.5444 197.729C44.141 207.892 35.4199 215.718 24.8708 215.718C13.3442 215.718 4 206.374 4 194.847C4 183.321 13.3442 173.977 24.8708 173.977C27.7668 173.977 30.5251 174.566 33.0321 175.633C33.4957 175.83 34.0278 175.802 34.4549 175.535V175.535C35.4141 174.935 35.3726 173.524 34.3798 172.982L17.924 163.991C17.8496 163.95 17.7662 163.929 17.6814 163.929V163.929C17.4019 163.929 17.1753 163.702 17.1753 163.423V121.489C17.1753 121.394 17.2521 121.317 17.3469 121.317V121.317C17.3771 121.317 17.4066 121.31 17.4327 121.294L113.51 65.8598C114.433 65.3273 115.569 65.3243 116.495 65.852L135.22 76.5251C136.169 77.0659 137.329 77.0325 138.306 76.5446C141.109 75.145 144.271 74.3576 147.617 74.3576C159.144 74.3576 168.488 83.7018 168.488 95.2284C168.488 106.755 159.144 116.099 147.617 116.099C137.813 116.099 129.588 109.339 127.348 100.227C127.136 99.3638 126.615 98.5977 125.846 98.1538L116.653 92.8521ZM154.574 95.2284C154.574 91.3862 151.459 88.2715 147.617 88.2715C143.775 88.2715 140.66 91.3862 140.66 95.2284C140.66 99.0706 143.775 102.185 147.617 102.185C151.459 102.185 154.574 99.0706 154.574 95.2284ZM120.28 136.396C118.359 133.068 114.104 131.928 110.776 133.849C107.449 135.771 106.309 140.025 108.23 143.353C110.151 146.68 114.406 147.82 117.733 145.899C121.061 143.978 122.201 139.723 120.28 136.396ZM31.8277 194.847C31.8277 191.005 28.7129 187.89 24.8707 187.89C21.0285 187.89 17.9138 191.005 17.9138 194.847C17.9138 198.69 21.0285 201.804 24.8707 201.804C28.7129 201.804 31.8277 198.69 31.8277 194.847Z" fill="#5965FF"/>
<path d="M178.551 169.148L175.04 171.064L175.04 171.064L178.551 169.148ZM173.976 185.095L172.032 181.599L172.032 181.6L173.976 185.095ZM162.755 164.529L160.811 161.033L160.811 161.034L162.755 164.529ZM102.462 183.057L104.389 179.552L104.389 179.552L102.462 183.057ZM75.5891 191.059L72.0685 189.161L72.0677 189.162L75.5891 191.059ZM75.3622 191.48L78.883 193.379L78.8836 193.378L75.3622 191.48ZM76.5509 195.549L78.4777 192.044L78.4773 192.044L76.5509 195.549ZM103.819 121.8L105.819 125.264L103.819 121.8ZM132.329 129.439L128.865 131.439L128.865 131.439L132.329 129.439ZM124.69 157.949L122.69 154.485L124.69 157.949ZM110.776 133.849L112.776 137.314L112.776 137.314L110.776 133.849ZM120.28 136.396L123.744 134.396L123.744 134.396L120.28 136.396ZM108.23 143.353L111.694 141.353L111.694 141.353L108.23 143.353ZM135.22 76.5251L133.239 80.0002L135.22 76.5251ZM138.306 76.5446L140.093 80.1233L138.306 76.5446ZM113.51 65.8598L115.509 69.3245L113.51 65.8598ZM116.495 65.852L114.514 69.3271L116.495 65.852ZM47.0038 195.38L44.8827 191.989L47.0038 195.38ZM45.5444 197.729L41.582 197.181L45.5444 197.729ZM106.972 159.434L105.579 163.183L106.972 159.434ZM92.1049 139.477L94.226 142.869L92.1049 139.477ZM93.5659 137.116L97.5304 137.648L93.5659 137.116ZM57.8903 159.071L55.9724 162.582L57.8903 159.071ZM60.9196 158.982L58.7985 155.591L60.9196 158.982ZM42.2165 150.508L40.2986 154.018L42.2165 150.508ZM116.035 217.252L117.961 213.746L116.035 217.252ZM188.926 134.063L191.345 137.249L188.926 134.063ZM17.4327 121.294L19.4318 124.759L17.4327 121.294ZM214.545 134.377L212.049 137.503L214.545 134.377ZM117.477 189.708L119.421 193.204L117.477 189.708ZM114.574 189.715L112.647 193.22L114.574 189.715ZM213.184 57.1076L211.273 60.6218L213.184 57.1076ZM115.5 4L115.393 0.00142145L115.5 4ZM17.924 163.991L19.8419 160.48L17.924 163.991ZM115.5 4.0001L113.59 7.51432L115.5 4.0001ZM113.654 92.8528L115.654 96.3169L113.654 92.8528ZM116.653 92.8521L114.655 96.3172L114.655 96.3172L116.653 92.8521ZM46.5848 69.972L42.6147 69.4844L46.5848 69.972ZM32.9275 47.7537L34.2798 43.9892L32.9275 47.7537ZM33.0321 175.633L34.5975 171.952L33.0321 175.633ZM42.1549 134.133L44.1549 137.597L42.1549 134.133ZM127.348 100.227L131.233 99.2719L127.348 100.227ZM125.846 98.1538L123.847 101.619L125.846 98.1538ZM116.825 31.6764L114.921 35.1946L116.825 31.6764ZM113.963 31.6801L115.875 35.1934L113.963 31.6801ZM116.673 216.961L118.617 220.457L116.673 216.961ZM188.696 70.5564L190.599 67.0382L188.696 70.5564ZM115.5 4.00001L117.416 7.51139L115.5 4.00001ZM115.5 4L115.607 7.99858L115.5 4ZM113.584 0.488642L33.6815 44.0833L37.5131 51.106L117.416 7.51139L113.584 0.488642ZM115.393 0.00142145L115.393 0.00142164L115.607 7.99858L115.607 7.99858L115.393 0.00142145ZM215.094 53.5934L117.411 0.485879L113.59 7.51432L211.273 60.6218L215.094 53.5934ZM217.269 131.848V57.66H209.269V131.848H217.269ZM226.405 150.696C226.405 142.822 222.741 135.801 217.04 131.251L212.049 137.503C215.93 140.601 218.405 145.358 218.405 150.696H226.405ZM201.534 175.567C215.27 175.567 226.405 164.432 226.405 150.696H218.405C218.405 160.014 210.851 167.567 201.534 167.567V175.567ZM176.663 150.696C176.663 164.432 187.798 175.567 201.534 175.567V167.567C192.216 167.567 184.663 160.014 184.663 150.696H176.663ZM186.508 130.877C180.533 135.412 176.663 142.603 176.663 150.696H184.663C184.663 145.21 187.277 140.336 191.345 137.249L186.508 130.877ZM186.269 73.195V131.485H194.269V73.195H186.269ZM114.921 35.1946L186.793 74.0746L190.599 67.0382L118.728 28.1582L114.921 35.1946ZM50.129 70.9775L115.875 35.1934L112.051 28.1667L46.3045 63.9509L50.129 70.9775ZM25.8708 92.2722C38.5724 92.2722 49.0449 82.7543 50.555 70.4597L42.6147 69.4844C41.5912 77.8174 34.4818 84.2722 25.8708 84.2722V92.2722ZM1 67.4014C1 81.1372 12.135 92.2722 25.8708 92.2722V84.2722C16.5533 84.2722 9 76.7189 9 67.4014H1ZM25.8708 42.5306C12.135 42.5306 1 53.6656 1 67.4014H9C9 58.0839 16.5533 50.5306 25.8708 50.5306V42.5306ZM34.2798 43.9892C31.6481 43.0439 28.815 42.5306 25.8708 42.5306V50.5306C27.88 50.5306 29.7988 50.8801 31.5753 51.5182L34.2798 43.9892ZM201.534 147.74C203.167 147.74 204.491 149.063 204.491 150.696H212.491C212.491 144.645 207.585 139.74 201.534 139.74V147.74ZM198.577 150.696C198.577 149.063 199.901 147.74 201.534 147.74V139.74C195.482 139.74 190.577 144.645 190.577 150.696H198.577ZM201.534 153.653C199.901 153.653 198.577 152.33 198.577 150.696H190.577C190.577 156.748 195.482 161.653 201.534 161.653V153.653ZM204.491 150.696C204.491 152.33 203.167 153.653 201.534 153.653V161.653C207.585 161.653 212.491 156.748 212.491 150.696H204.491ZM28.8277 67.4014C28.8277 69.0345 27.5038 70.3584 25.8707 70.3584V78.3584C31.9221 78.3584 36.8277 73.4528 36.8277 67.4014H28.8277ZM25.8707 64.4445C27.5038 64.4445 28.8277 65.7684 28.8277 67.4014H36.8277C36.8277 61.3501 31.9221 56.4445 25.8707 56.4445V64.4445ZM22.9138 67.4014C22.9138 65.7684 24.2377 64.4445 25.8707 64.4445V56.4445C19.8194 56.4445 14.9138 61.3501 14.9138 67.4014H22.9138ZM25.8707 70.3584C24.2377 70.3584 22.9138 69.0345 22.9138 67.4014H14.9138C14.9138 73.4528 19.8194 78.3584 25.8707 78.3584V70.3584ZM175.04 171.064C177.096 174.832 175.721 179.548 172.032 181.599L175.92 188.591C183.482 184.387 186.204 174.823 182.063 167.233L175.04 171.064ZM164.699 168.025C168.366 165.986 172.996 167.318 175.04 171.064L182.063 167.233C177.909 159.619 168.394 156.817 160.811 161.033L164.699 168.025ZM119.421 193.204L164.699 168.025L160.811 161.034L115.533 186.212L119.421 193.204ZM100.535 186.563L112.647 193.22L116.501 186.21L104.389 179.552L100.535 186.563ZM79.1097 192.958C83.2967 185.195 92.8902 182.36 100.535 186.563L104.389 179.552C92.8152 173.19 78.3458 177.522 72.0685 189.161L79.1097 192.958ZM78.8836 193.378L79.1104 192.957L72.0677 189.162L71.8409 189.583L78.8836 193.378ZM78.4773 192.044C78.9792 192.32 79.1313 192.918 78.883 193.379L71.8414 189.582C70.0241 192.952 71.2401 197.195 74.6246 199.055L78.4773 192.044ZM117.961 213.746L78.4777 192.044L74.6242 199.055L114.108 220.757L117.961 213.746ZM172.032 181.6L114.729 213.465L118.617 220.457L175.92 188.591L172.032 181.6ZM44.1549 137.597L115.654 96.3169L111.654 89.3887L40.1549 130.669L44.1549 137.597ZM44.6549 147.875V136.731H36.6549V147.875H44.6549ZM59.8082 155.561L44.1344 146.997L40.2986 154.018L55.9724 162.582L59.8082 155.561ZM89.9838 136.086L58.7985 155.591L63.0407 162.374L94.226 142.869L89.9838 136.086ZM101.819 118.336C94.8686 122.349 90.5893 129.214 89.6013 136.585L97.5304 137.648C98.203 132.63 101.108 127.984 105.819 125.264L101.819 118.336ZM135.793 127.439C128.926 115.543 113.715 111.468 101.819 118.336L105.819 125.264C113.888 120.605 124.206 123.37 128.865 131.439L135.793 127.439ZM126.69 161.413C138.586 154.545 142.661 139.334 135.793 127.439L128.865 131.439C133.524 139.508 130.759 149.826 122.69 154.485L126.69 161.413ZM105.579 163.183C112.276 165.673 120.008 165.271 126.69 161.413L122.69 154.485C118.16 157.1 112.925 157.379 108.366 155.685L105.579 163.183ZM49.1249 198.771L106.218 163.062L101.976 156.28L44.8827 191.989L49.1249 198.771ZM24.8708 219.718C37.445 219.718 47.8339 210.391 49.5068 198.276L41.582 197.181C40.4481 205.393 33.3948 211.718 24.8708 211.718V219.718ZM0 194.847C0 208.583 11.135 219.718 24.8708 219.718V211.718C15.5533 211.718 8 204.165 8 194.847H0ZM24.8708 169.977C11.135 169.977 0 181.112 0 194.847H8C8 185.53 15.5533 177.977 24.8708 177.977V169.977ZM34.5975 171.952C31.6045 170.679 28.3145 169.977 24.8708 169.977V177.977C27.2192 177.977 29.4457 178.454 31.4666 179.314L34.5975 171.952ZM16.0061 167.501L32.4619 176.492L36.2977 169.471L19.8419 160.48L16.0061 167.501ZM13.1753 121.489V163.423H21.1753V121.489H13.1753ZM111.511 62.3952L15.4337 117.83L19.4318 124.759L115.509 69.3245L111.511 62.3952ZM137.201 73.05L118.476 62.3768L114.514 69.3271L133.239 80.0002L137.201 73.05ZM147.617 70.3576C143.637 70.3576 139.864 71.2955 136.519 72.9659L140.093 80.1233C142.353 78.9945 144.905 78.3576 147.617 78.3576V70.3576ZM172.488 95.2284C172.488 81.4926 161.353 70.3576 147.617 70.3576V78.3576C156.934 78.3576 164.488 85.9109 164.488 95.2284H172.488ZM147.617 120.099C161.353 120.099 172.488 108.964 172.488 95.2284H164.488C164.488 104.546 156.934 112.099 147.617 112.099V120.099ZM123.464 101.181C126.133 112.04 135.929 120.099 147.617 120.099V112.099C139.697 112.099 133.043 106.639 131.233 99.2719L123.464 101.181ZM114.655 96.3172L123.847 101.619L127.844 94.6888L118.651 89.3871L114.655 96.3172ZM147.617 92.2715C149.25 92.2715 150.574 93.5954 150.574 95.2284H158.574C158.574 89.177 153.668 84.2715 147.617 84.2715V92.2715ZM144.66 95.2284C144.66 93.5954 145.984 92.2715 147.617 92.2715V84.2715C141.566 84.2715 136.66 89.177 136.66 95.2284H144.66ZM147.617 98.1853C145.984 98.1853 144.66 96.8615 144.66 95.2284H136.66C136.66 101.28 141.566 106.185 147.617 106.185V98.1853ZM150.574 95.2284C150.574 96.8615 149.25 98.1853 147.617 98.1853V106.185C153.668 106.185 158.574 101.28 158.574 95.2284H150.574ZM112.776 137.314C114.191 136.497 115.999 136.982 116.816 138.396L123.744 134.396C120.718 129.155 114.017 127.36 108.776 130.385L112.776 137.314ZM111.694 141.353C110.878 139.938 111.362 138.13 112.776 137.314L108.776 130.385C103.536 133.411 101.74 140.112 104.766 145.353L111.694 141.353ZM115.733 142.435C114.319 143.252 112.511 142.767 111.694 141.353L104.766 145.353C107.792 150.593 114.493 152.389 119.733 149.363L115.733 142.435ZM116.816 138.396C117.632 139.81 117.148 141.619 115.733 142.435L119.733 149.363C124.974 146.338 126.769 139.636 123.744 134.396L116.816 138.396ZM24.8707 191.89C26.5038 191.89 27.8277 193.214 27.8277 194.847H35.8277C35.8277 188.796 30.9221 183.89 24.8707 183.89V191.89ZM21.9138 194.847C21.9138 193.214 23.2377 191.89 24.8707 191.89V183.89C18.8194 183.89 13.9138 188.796 13.9138 194.847H21.9138ZM24.8707 197.804C23.2377 197.804 21.9138 196.48 21.9138 194.847H13.9138C13.9138 200.899 18.8194 205.804 24.8707 205.804V197.804ZM27.8277 194.847C27.8277 196.48 26.5038 197.804 24.8707 197.804V205.804C30.922 205.804 35.8277 200.899 35.8277 194.847H27.8277ZM133.239 80.0002C135.505 81.2917 138.092 81.1221 140.093 80.1233L136.519 72.9659C136.565 72.9429 136.833 72.8402 137.201 73.05L133.239 80.0002ZM115.509 69.3245C115.201 69.502 114.823 69.503 114.514 69.3271L118.476 62.3768C116.316 61.1456 113.664 61.1526 111.511 62.3952L115.509 69.3245ZM44.8827 191.989C42.9271 193.212 41.8538 195.213 41.582 197.181L49.5068 198.276C49.4993 198.33 49.442 198.573 49.1249 198.771L44.8827 191.989ZM108.366 155.685C106.414 154.959 104.025 154.998 101.976 156.28L106.218 163.062C105.886 163.27 105.631 163.203 105.579 163.183L108.366 155.685ZM94.226 142.869C96.1897 141.64 97.2649 139.628 97.5304 137.648L89.6013 136.585C89.6088 136.529 89.6666 136.284 89.9838 136.086L94.226 142.869ZM55.9724 162.582C58.1929 163.795 60.8954 163.715 63.0407 162.374L58.7985 155.591C59.1049 155.399 59.491 155.388 59.8082 155.561L55.9724 162.582ZM36.6549 147.875C36.6549 150.435 38.0522 152.791 40.2986 154.018L44.1344 146.997C44.4553 147.173 44.6549 147.509 44.6549 147.875H36.6549ZM114.108 220.757C116.232 221.925 118.9 221.138 120.05 219.005L113.009 215.207C113.968 213.429 116.191 212.774 117.961 213.746L114.108 220.757ZM191.345 137.249C193.015 135.98 194.269 133.922 194.269 131.485H186.269C186.269 131.091 186.464 130.91 186.508 130.877L191.345 137.249ZM17.3469 125.317C18.0788 125.317 18.7978 125.125 19.4318 124.759L15.4337 117.83C16.0155 117.494 16.6753 117.317 17.3469 117.317V125.317ZM209.269 131.848C209.269 134.216 210.454 136.229 212.049 137.503L217.04 131.251C217.084 131.286 217.269 131.466 217.269 131.848H209.269ZM115.533 186.212C115.834 186.045 116.199 186.044 116.501 186.21L112.647 193.22C114.758 194.38 117.316 194.374 119.421 193.204L115.533 186.212ZM21.1753 121.489C21.1753 123.603 19.4613 125.317 17.3469 125.317V117.317C15.043 117.317 13.1753 119.185 13.1753 121.489H21.1753ZM209.787 55.6132C209.447 56.2418 209.269 56.9452 209.269 57.66H217.269C217.269 58.2745 217.116 58.8792 216.823 59.4196L209.787 55.6132ZM17.6814 159.929C19.611 159.929 21.1753 161.493 21.1753 163.423H13.1753C13.1753 165.911 15.1927 167.929 17.6814 167.929V159.929ZM211.273 60.6218C209.482 59.6477 208.817 57.407 209.787 55.6132L216.823 59.4196C217.952 57.333 217.179 54.7265 215.094 53.5934L211.273 60.6218ZM115.607 7.99858C114.11 8.03848 112.717 7.23959 111.995 5.92811L119.005 2.072C118.283 0.760446 116.89 -0.0384815 115.393 0.00142145L115.607 7.99858ZM36.5761 178.926C40.1281 176.704 39.9743 171.48 36.2977 169.471L32.4619 176.492C30.7709 175.568 30.7002 173.165 32.3338 172.143L36.5761 178.926ZM19.8419 160.48C19.1793 160.118 18.4364 159.929 17.6814 159.929V167.929C17.0959 167.929 16.5199 167.782 16.0061 167.501L19.8419 160.48ZM111.995 5.92811C112.406 6.67404 112.998 7.19244 113.59 7.51432L117.411 0.485879C118.003 0.807734 118.594 1.32611 119.005 2.072L111.995 5.92811ZM115.654 96.3169C115.345 96.4955 114.964 96.4956 114.655 96.3172L118.651 89.3871C116.486 88.1383 113.819 88.1389 111.654 89.3887L115.654 96.3169ZM46.3045 63.9509C44.0921 65.155 42.8783 67.338 42.6147 69.4844L50.555 70.4597C50.5485 70.5126 50.4888 70.7816 50.129 70.9775L46.3045 63.9509ZM33.6815 44.0833C33.9964 43.9114 34.2289 43.971 34.2798 43.9892L31.5753 51.5182C33.3803 52.1666 35.5619 52.1705 37.5131 51.106L33.6815 44.0833ZM31.4666 179.314C33.0533 179.988 34.97 179.93 36.5761 178.926L32.3338 172.143C33.0857 171.673 33.9381 171.671 34.5975 171.952L31.4666 179.314ZM40.1549 130.669C37.9891 131.919 36.6549 134.23 36.6549 136.731H44.6549C44.6549 137.088 44.4643 137.418 44.1549 137.597L40.1549 130.669ZM131.233 99.2719C130.796 97.4949 129.68 95.7476 127.844 94.6888L123.847 101.619C123.551 101.448 123.477 101.233 123.464 101.181L131.233 99.2719ZM118.728 28.1582C116.644 27.031 114.132 27.0342 112.051 28.1667L115.875 35.1934C115.578 35.3552 115.219 35.3556 114.921 35.1946L118.728 28.1582ZM120.05 219.005C119.721 219.615 119.224 220.119 118.617 220.457L114.729 213.465C114.001 213.87 113.404 214.474 113.009 215.207L120.05 219.005ZM194.269 73.195C194.269 70.6247 192.86 68.2611 190.599 67.0382L186.793 74.0746C186.47 73.8999 186.269 73.5622 186.269 73.195H194.269ZM117.416 7.51139C116.86 7.81472 116.24 7.9817 115.607 7.99858L115.393 0.00142164C114.76 0.0183051 114.14 0.185292 113.584 0.488642L117.416 7.51139Z" fill="white" mask="url(#path-2-outside-1_104_42)"/>
</svg>
